<svg width="240" height="240" xmlns="http://www.w3.org/2000/svg" fill="none">

 <g>
  <title>Layer 1</title>
  <path stroke="null" id="svg_1" fill="#01B5E6" d="m200.77505,35.8866l5.059,6.6618c1.328,1.7582 0.996,4.2783 -0.762,5.6068l-5.372,4.083c0.977,2.5982 1.602,5.3723 1.856,8.205l6.114,0.8401c2.187,0.293 3.711,2.3247 3.418,4.5127l-1.133,8.3028c-0.293,2.188 -2.324,3.7313 -4.512,3.4188l-6.68,-0.9182c-1.192,2.5983 -2.715,4.9816 -4.512,7.111l3.75,4.9231c1.328,1.7582 0.977,4.2783 -0.781,5.6068l-6.661,5.0598c-1.758,1.3284 -4.277,0.9768 -5.605,-0.7619l-4.083,-5.3724c-2.617,0.9768 -5.371,1.6019 -8.223,1.8559l-0.84,6.1147c-0.293,2.188 -2.324,3.7118 -4.512,3.4188l-8.301,-1.1331c-2.188,-0.293 -3.711,-2.3247 -3.418,-4.5128l0.918,-6.6812c-2.578,-1.1917 -4.981,-2.7155 -7.11,-4.4933l-4.922,3.7314c-1.758,1.3284 -4.278,0.9963 -5.606,-0.7619l-5.059,-6.6618c-1.328,-1.7582 -0.996,-4.2783 0.762,-5.6068l5.371,-4.0829c-0.976,-2.6179 -1.601,-5.3724 -1.855,-8.2051l-6.114,-0.8401c-2.187,-0.293 -3.731,-2.3247 -3.418,-4.5127l1.133,-8.3028c0.312,-2.188 2.324,-3.7118 4.512,-3.4188l6.68,0.9182c1.191,-2.5787 2.715,-4.9816 4.492,-7.111l-3.73,-4.9231c-1.329,-1.7387 -0.996,-4.2588 0.761,-5.5872l6.661,-5.05981c1.758,-1.32844 4.278,-0.99633 5.606,0.76189l4.082,5.37232c2.598,-0.9767 5.371,-1.60189 8.204,-1.85586l0.84,-6.11473c0.293,-2.18801 2.324,-3.73135 4.512,-3.43831l8.301,1.13308c2.187,0.29304 3.73,2.32477 3.418,4.51279l-0.918,6.68123c2.598,1.1917 4.981,2.7155 7.129,4.5128l4.922,-3.7313c1.758,-1.348 4.278,-1.0159 5.626,0.7423zm-142.821,117.2344l0,-32.2338l16.602,0c3.087,0 5.43,0.254 7.052,0.801c1.621,0.5278 2.949,1.5038 3.926,2.9308c0.996,1.445 1.504,3.184 1.504,5.235c0,1.778 -0.391,3.341 -1.153,4.63c-0.762,1.309 -1.816,2.364 -3.144,3.165c-0.84,0.508 -2.012,0.938 -3.497,1.27c1.192,0.41 2.051,0.781 2.578,1.191c0.372,0.274 0.899,0.841 1.583,1.7c0.683,0.86 1.152,1.543 1.386,2.012l4.844,9.319l-11.25,0l-5.313,-9.827c-0.684,-1.269 -1.27,-2.109 -1.797,-2.481c-0.723,-0.488 -1.543,-0.742 -2.442,-0.742l-0.879,0l0,13.05l-10,0l0,-0.02zm35.119,56.127l-18.595,0l-2.676,8.752l-16.758,0l19.981,-53.118l17.97,0l19.904,53.118l-17.189,0l-2.637,-8.752zm-3.477,-11.507l-5.801,-19.106l-5.82,19.106l11.621,0zm27.17,-32.859l27.306,0c5.958,0 10.411,1.407 13.36,4.239c2.95,2.833 4.434,6.877 4.434,12.093c0,5.372 -1.621,9.573 -4.844,12.601c-3.223,3.028 -8.164,4.532 -14.786,4.532l-9.004,0l0,19.653l-16.466,0l0,-53.118l0,0zm16.466,22.701l4.043,0c3.184,0 5.43,-0.547 6.719,-1.661c1.289,-1.094 1.934,-2.52 1.934,-4.22c0,-1.66 -0.567,-3.086 -1.68,-4.239c-1.113,-1.153 -3.223,-1.739 -6.309,-1.739l-4.707,0l0,11.859l0,0zm35.275,-22.701l16.466,0l0,53.118l-16.466,0l0,-53.118l0,0zm-100.553,-30.906l4.2,0c0.449,0 1.328,-0.156 2.637,-0.449c0.664,-0.137 1.211,-0.469 1.621,-1.016c0.43,-0.547 0.625,-1.172 0.625,-1.875c0,-1.036 -0.332,-1.856 -0.996,-2.403c-0.664,-0.567 -1.895,-0.84 -3.711,-0.84l-4.376,0l0,6.583zm23.596,-13.0888l26.661,0l0,6.8768l-16.661,0l0,5.138l15.45,0l0,6.564l-15.45,0l0,6.349l17.15,0l0,7.287l-27.15,0l0,-32.2148zm29.513,21.5678l9.454,-0.586c0.195,1.543 0.625,2.696 1.25,3.497c1.035,1.289 2.5,1.953 4.395,1.953c1.406,0 2.519,-0.332 3.281,-0.996c0.762,-0.664 1.152,-1.446 1.152,-2.325c0,-0.84 -0.371,-1.582 -1.093,-2.246c-0.723,-0.665 -2.422,-1.27 -5.098,-1.876c-4.356,-0.977 -7.462,-2.286 -9.337,-3.907c-1.875,-1.622 -2.812,-3.692 -2.812,-6.213c0,-1.66 0.488,-3.223 1.445,-4.688c0.957,-1.465 2.402,-2.637 4.336,-3.4775c1.934,-0.8401 4.571,-1.2503 7.93,-1.2503c4.122,0 7.247,0.7619 9.415,2.3048c2.148,1.544 3.438,3.966 3.848,7.326l-9.356,0.567c-0.254,-1.465 -0.782,-2.54 -1.563,-3.184c-0.801,-0.665 -1.914,-0.997 -3.301,-0.997c-1.152,0 -2.031,0.254 -2.617,0.743c-0.586,0.488 -0.879,1.094 -0.879,1.797c0,0.508 0.254,0.957 0.723,1.387c0.468,0.41 1.562,0.82 3.32,1.192c4.356,0.937 7.481,1.895 9.356,2.852c1.875,0.957 3.262,2.149 4.102,3.575c0.859,1.407 1.289,3.008 1.289,4.767c0,2.07 -0.566,3.965 -1.719,5.704c-1.133,1.739 -2.734,3.067 -4.785,3.966c-2.051,0.899 -4.629,1.348 -7.755,1.348c-5.469,0 -9.277,-1.055 -11.387,-3.165c-2.109,-2.149 -3.301,-4.825 -3.594,-8.068zm30.685,-21.5678l30.295,0l0,7.9708l-10.157,0l0,24.263l-9.961,0l0,-24.263l-10.177,0l0,-7.9708l0,0zm-33.517,-76.5025c-3.575,-0.2735 -7.188,-0.2344 -10.762,0.1173c-10.997,1.0549 -21.681,5.0597 -30.51,11.9168c-10.216,7.9121 -17.97,19.7508 -20.958,35.4381l-0.938,4.9035l-4.883,0.8596c-4.785,0.84 -9.063,1.9926 -12.813,3.4578c-3.633,1.4066 -6.876,3.1453 -9.708,5.1966c-2.266,1.641 -4.219,3.4773 -5.879,5.47c-5.137,6.1538 -7.52,13.8706 -7.461,21.6846c0.058,7.932 2.636,15.941 7.402,22.525c1.778,2.442 3.829,4.689 6.173,6.642c2.383,1.973 5.058,3.614 8.066,4.845c1.7,0.703 3.516,1.29 5.411,1.758l0,14.633c-3.907,-0.704 -7.501,-1.758 -10.86,-3.146c-4.434,-1.836 -8.36,-4.2 -11.817,-7.091c-3.282,-2.735 -6.153,-5.841 -8.594,-9.221c-6.505,-8.986 -10.021,-19.966 -10.099,-30.906c-0.078,-11.057 3.36,-22.0557 10.782,-30.9641c2.403,-2.8913 5.235,-5.5481 8.477,-7.8925c3.77,-2.735 8.087,-5.0402 12.97,-6.9352c3.359,-1.3089 6.953,-2.4029 10.743,-3.282c4.297,-17.0744 13.457,-30.222 25.235,-39.3452c11.017,-8.5372 24.279,-13.51887 37.932,-14.82777c7.169,-0.68376 14.435,-0.37118 21.545,0.95726c-0.157,0.64468 -0.293,1.28941 -0.372,1.95361l-0.019,0.1172c-0.137,1.1135 -0.195,2.2271 -0.137,3.3602c-1.504,0.586 -2.91,1.387 -4.18,2.3638l-0.058,0.0391c-1.895,1.4261 -3.497,3.2625 -4.688,5.3723zm103.346,37.5089c1.094,0.9963 2.148,2.0317 3.184,3.1453c2.089,2.2466 4.062,4.7863 5.918,7.619c6.25,9.6116 9.454,22.4467 9.317,35.0081c-0.137,12.327 -3.457,24.596 -10.255,33.621c-4.434,5.881 -10.117,10.686 -16.934,14.496c-4.669,2.618 -9.923,4.786 -15.646,6.545l0,-15.141c3.086,-1.152 5.958,-2.442 8.595,-3.907c5.137,-2.872 9.336,-6.369 12.481,-10.569c4.883,-6.505 7.285,-15.707 7.383,-25.143c0.117,-9.9042 -2.305,-19.848 -7.012,-27.0762c-1.348,-2.0904 -2.832,-3.9658 -4.395,-5.6459c-0.605,-0.6447 -1.211,-1.2503 -1.836,-1.8364c0.098,-0.9768 0.137,-1.9731 0.078,-2.9694c1.504,-0.5861 2.91,-1.3871 4.18,-2.3639l0.059,-0.0391c2.011,-1.5433 3.691,-3.4969 4.883,-5.7435zm-49.534,-34.8911c9.004,1.2308 15.293,9.5335 14.063,18.5396c-1.231,9.006 -9.532,15.3161 -18.536,14.0853c-9.005,-1.2307 -15.314,-9.5335 -14.064,-18.5395c1.25,-9.006 9.532,-15.3161 18.537,-14.0854z" clip-rule="evenodd" fill-rule="evenodd"/>
 </g>
</svg>