<?xml version="1.0"?>
<svg width="100" height="100" xmlns="http://www.w3.org/2000/svg" xmlns:svg="http://www.w3.org/2000/svg">
 <g class="layer">
  <title>Layer 1</title>
  <rect fill="#181a2f" height="100" id="svg_1" rx="20" width="100"/>
  <path d="m20.84,81.49l0,0q-3.78,0 -5.38,-1.42q-1.58,-1.42 -1.58,-4.76l0,0l0,-55.99q0.89,-0.2 2.58,-0.51q1.69,-0.3 3.39,-0.3l0,0q3.6,0 5.28,1.32q1.69,1.32 1.69,4.86l0,0l0,55.99q-0.89,0.2 -2.54,0.51q-1.64,0.3 -3.44,0.3zm63.88,-62.17l0,0q0.5,0.81 0.95,2.17q0.45,1.37 0.45,2.99l0,0q0,2.73 -1.25,4.15q-1.24,1.42 -3.44,1.42l0,0l-13.75,0l0,50.63q-0.8,0.2 -2.49,0.51q-1.69,0.3 -3.49,0.3l0,0q-3.79,0 -5.38,-1.42q-1.59,-1.42 -1.59,-4.76l0,0l0,-45.26l-16.74,0q-0.5,-0.91 -0.94,-2.23q-0.45,-1.32 -0.45,-2.94l0,0q0,-2.84 1.25,-4.2q1.24,-1.37 3.43,-1.37l0,0l43.45,0z" fill="url(#svg_3)" id="svg_2"/>
 </g>
 <defs>
  <linearGradient id="svg_3">
   <stop id="jq_stop_7630" offset="0" stop-color="#43a6c3"/>
   <stop id="jq_stop_1769" offset="1" stop-color="#f47f9c" stop-opacity="1"/>
  </linearGradient>
 </defs>
</svg>